# xmcd CD database file
#
# Track frame offsets:
#	150
#	35258
#	55495
#	75425
#	122285
#	142925
#	177748
#	197833
#	226000
#
# Disc length: 3366 seconds
#
# Revision: 0
# Processed by: cddbd v1.5.2PL0 Copyright (c) Steve Scherf et al.
# Submitted via: CDex 1.70beta2
#
DISCID=6c0d2409
DTITLE=Edward Petersen - Upward Spiral
DYEAR=1990
DGENRE=Jazz
TTITLE0=Probably
TTITLE1=Upward Spiral
TTITLE2=Elliott Ness
TTITLE3=Objects in the Mirror are Closer than they Appear
TTITLE4=Poem for Tortured Spirits
TTITLE5=Onus B
TTITLE6=Dan's Idea
TTITLE7=For Dan
TTITLE8=I Didn't Know What Time it Was
EXTD=YEAR: 1990
EXTT0=
EXTT1=
EXTT2=
EXTT3=
EXTT4=
EXTT5=
EXTT6=
EXTT7=
EXTT8=
PLAYORDER=
